# File created by Blade
# Date/Time:  Thu Sep 25 17:43:48 2014
# Frame Rate: 120.000 fps
#------------------------------------------------------
:FULLY-SPECIFIED
:DEGREES
162
root -25.054877 31.973409 0.648767 -330.329814 -98.370054 -21.172555
Spine -4.321856 0.110288 -3.293630
Head -7.905240 3.718780 9.773836
LeftShoulder -5.031843 15.418898 11.822514
LeftArm 54.591461 49.562443 -48.289751
LeftForeArm 9.694656 -0.000000 27.972728
LeftHand -26.216335 0.000000 -4.260304
LeftHandThumb1 -26.253704 0.000000 33.147579
RightShoulder -16.436172 6.373573 -23.483099
RightArm -19.799377 -34.186869 94.076561
RightForeArm -18.457688 -0.000000 24.256579
RightHand -5.806757 -0.000000 10.661852
RightHandThumb1 -24.326973 -0.000000 -32.862282
LeftUpLeg 8.867796 -7.055518 -12.022416
LeftLeg 5.256729 -0.000000 -0.000000
LeftFoot -10.603245 12.693796 346.207589
LeftToeBase -11.107624 -0.000000 0.000000
RightUpLeg -30.409839 -9.254569 4.102956
RightLeg 0.570709 -0.000000 -0.000000
RightFoot -0.055913 9.998884 9.077953
RightToeBase -7.723291 -0.000000 0.000000
163
root -25.380637 31.926018 0.616190 -328.710173 -98.315345 -22.810402
Spine -4.656107 0.210755 -3.567703
Head -7.760504 3.514754 9.821988
LeftShoulder -4.963211 15.398839 11.610854
LeftArm 53.354189 50.224464 -48.617635
LeftForeArm 8.239093 -0.000000 25.572970
LeftHand -25.644398 0.000000 -4.752827
LeftHandThumb1 -26.253704 0.000000 33.147579
RightShoulder -16.436627 6.262813 -23.364703
RightArm -20.078588 -34.440493 94.489962
RightForeArm -18.277351 -0.000000 24.296739
RightHand -5.835100 -0.000000 10.781111
RightHandThumb1 -24.326973 -0.000000 -32.862282
LeftUpLeg 9.321095 -6.614809 -12.154067
LeftLeg 5.495772 -0.000000 -0.000000
LeftFoot -10.296943 12.158925 346.315979
LeftToeBase -11.791441 -0.000000 0.000000
RightUpLeg -30.216988 -9.230991 3.941197
RightLeg 1.006789 -0.000000 -0.000000
RightFoot -0.260378 9.717256 8.563301
RightToeBase -7.268059 -0.000000 0.000000
164
root -25.696177 31.879583 0.583445 -326.858584 -98.138558 -24.614305
Spine -5.030282 0.157633 -3.723615
Head -7.633267 3.369430 9.760636
LeftShoulder -4.814440 15.239065 11.377528
LeftArm 51.692462 50.831662 -49.330623
LeftForeArm 6.433920 -0.000000 23.227598
LeftHand -25.588224 -0.000000 -4.728241
LeftHandThumb1 -26.253704 0.000000 33.147579
RightShoulder -16.439445 6.149226 -23.335784
RightArm -20.230146 -34.683534 94.882715
RightForeArm -18.167934 -0.000000 24.224951
RightHand -5.713929 -0.000000 11.146247
RightHandThumb1 -24.326973 -0.000000 -32.862282
LeftUpLeg 9.691622 -6.498933 -12.263766
LeftLeg 5.804260 -0.000000 -0.000000
LeftFoot -10.055377 11.827567 345.993646
LeftToeBase -12.659907 -0.000000 0.000000
RightUpLeg -30.016537 -9.128569 3.706601
RightLeg 1.442485 -0.000000 -0.000000
RightFoot -0.435262 9.439947 7.850515
RightToeBase -7.454888 -0.000000 0.000000
165
root -26.024505 31.827692 0.552102 -324.266031 -97.907154 -27.189960
Spine -5.407421 0.021245 -3.929276
Head -7.498964 3.239226 9.727310
LeftShoulder -4.679673 15.256856 11.197496
LeftArm 50.233821 51.452667 -49.920193
LeftForeArm 4.328666 -0.000000 20.927356
LeftHand -25.367544 -0.000000 -4.982016
LeftHandThumb1 -26.253704 0.000000 33.147579
RightShoulder -16.383008 6.111462 -23.333248
RightArm -20.597572 -34.889730 95.394337
RightForeArm -18.133332 -0.000000 24.261565
RightHand -5.656316 0.000000 11.154981
RightHandThumb1 -24.326973 -0.000000 -32.862282
LeftUpLeg 10.096211 -6.539852 -12.433850
LeftLeg 6.143122 -0.000000 -0.000000
LeftFoot -9.798481 11.491724 345.767286
LeftToeBase -13.466897 -0.000000 0.000000
RightUpLeg -29.653549 -9.156431 3.363076
RightLeg 1.647576 -0.000000 -0.000000
RightFoot -0.750585 9.377581 7.449797
RightToeBase -7.006973 -0.000000 0.000000
